<svg width="180" height="180" xmlns="http://www.w3.org/2000/svg" xmlns:svg="http://www.w3.org/2000/svg" fill="#fff">
  <g fill="#c1c6c8" font-family="none" font-size="none" font-weight="none" id="svg_1" stroke-miterlimit="10" text-anchor="none">
    <path d="m96.79,17.05a74.22,74.22 0 0 0 -25.45,4.63a72.26,72.26 0 0 0 -10.8,4.97a81.16,81.16 0 0 0 -8.87,5.84a88.75,88.75 0 0 0 -7.45,6.45a73.69,73.69 0 0 0 -6.24,7.05a86.9,86.9 0 0 0 -6.25,9.33c-6.5,11.68 -9.73,23.83 -9.73,36.38l0,1.08c0,8.12 1.48,16.31 4.36,24.57a70,70 0 0 0 5.44,11.88c1.14,2.29 3.09,5.24 5.84,8.93c1.28,1.82 3.7,4.57 7.32,8.26a92.56,92.56 0 0 0 7.39,6.31a84.42,84.42 0 0 0 8.79,5.64c8.2,4.3 15.78,6.45 22.7,6.45c2.74,0 5.36,-0.4 7.98,-1.15c4.77,-1.67 8.8,-4.9 12.09,-9.73a29.54,29.54 0 0 0 2.48,-4.57c2.08,-4.56 3.15,-11.14 3.15,-19.67l0,-6.37c0,-5.1 1.68,-9.67 5.04,-13.7c4.5,-4.83 9.8,-7.25 15.91,-7.25c4.5,0 8.6,1.34 12.42,4.03c0.8,0.47 2.02,1.6 3.7,3.42c3.22,4.1 4.83,8.46 4.83,13.1l0,14.63c0,7.65 -2.55,14.63 -7.59,20.94c-0.6,0.81 -1.95,2.22 -4.1,4.23c-1,0.88 -2,1.55 -2.95,2.15c0.54,-0.06 1.21,-0.27 2.02,-0.47a23.6,23.6 0 0 0 4.7,-2.01a32.88,32.88 0 0 0 5.57,-4.23a25.68,25.68 0 0 0 3.82,-4.77a29.84,29.84 0 0 0 4.03,-9.67c0.47,-2.21 0.74,-5.5 0.74,-9.86l0,-10.48c0,-7.85 -2.95,-14.5 -8.8,-20.07c-5.36,-4.77 -11.47,-7.18 -18.39,-7.18c-3.15,0 -6.24,0.53 -9.26,1.67a27.1,27.1 0 0 0 -14.97,13.36a21.02,21.02 0 0 1 -8.6,1.95l-0.74,0c-5.17,0 -9.87,-1.95 -14.16,-5.84c-4.3,-4.36 -6.45,-9.26 -6.45,-14.84l0,-0.47c0,-4.3 1.35,-8.32 4.1,-12.15c0.47,-0.8 1.68,-2.01 3.49,-3.69c4.1,-3.22 8.53,-4.83 13.36,-4.83c4.9,0 9.26,1.54 13.22,4.7a60.36,60.36 0 0 0 4.44,3.82c4.83,3.3 9.86,4.97 15.1,4.97l0.94,0c3.56,0 7.18,-0.8 10.88,-2.42a34.31,34.31 0 0 0 5.77,-3.42c1.28,-1 2.75,-2.48 4.43,-4.3a26.6,26.6 0 0 0 5.84,-16.58l0,-0.74c0,-4.16 -1,-8.19 -3.02,-12.08c-0.74,-1.61 -2.15,-3.63 -4.16,-6.05a85.36,85.36 0 0 0 -7.52,-6.57a103.28,103.28 0 0 0 -9,-5.98c-11.61,-6.38 -23.76,-9.6 -36.32,-9.6l-1.07,0zm-68.61,75.26c0,-13.1 3.55,-25.31 10.6,-36.66a58.82,58.82 0 0 1 6.18,-8.32c1.14,-1.55 3.36,-3.83 6.65,-6.85a76.41,76.41 0 0 1 7.85,-5.97c11.68,-7.46 24.24,-11.22 37.73,-11.22a68.94,68.94 0 0 1 31.42,7.46a59.2,59.2 0 0 1 8.06,4.76c2.08,1.28 5.03,3.76 8.93,7.39a20.6,20.6 0 0 1 6.1,14.77c0,5.23 -1.8,9.93 -5.5,14.16c-4.36,4.5 -9.53,6.78 -15.5,6.78l-0.07,0c-3.16,0 -6.25,-0.73 -9.27,-2.14a22.02,22.02 0 0 1 -5.17,-3.7c-5.5,-5.1 -11.75,-7.65 -18.8,-7.65a27.17,27.17 0 0 0 -16.1,5.24a31.19,31.19 0 0 0 -4.3,3.89c-4.57,5.37 -6.85,11.35 -6.85,17.92a26.9,26.9 0 0 0 5.84,16.86c0.74,1 2.08,2.35 3.96,4.02c5.23,4.23 11,6.31 17.32,6.31c2.08,0 4.23,-0.26 6.51,-0.73c-0.27,1.67 -0.4,3.29 -0.4,4.76c-2.08,0.4 -4.1,0.6 -5.91,0.6c-4.43,0 -8.8,-0.93 -13.02,-2.75a33.23,33.23 0 0 1 -9.8,-6.5a34.86,34.86 0 0 1 -4.03,-4.57c-4.1,-5.98 -6.11,-12.15 -6.11,-18.67l0,-0.94a32.22,32.22 0 0 1 7.18,-20a33.3,33.3 0 0 1 4.43,-4.64c6.38,-5.23 13.5,-7.85 21.35,-7.85a31.6,31.6 0 0 1 16.65,4.57c1.81,1 4.23,2.81 7.12,5.37c2.55,2.41 5.77,3.62 9.66,3.62c3.03,0 5.91,-0.94 8.66,-2.75l1.88,-1.55c3.03,-3.22 4.57,-6.7 4.57,-10.4l0,-0.34s0,-0.06 0.07,-0.13c-0.07,-0.07 -0.07,-0.14 -0.07,-0.2l0,-0.27c0,-4.63 -2.42,-8.93 -7.25,-12.76a54.55,54.55 0 0 0 -7.59,-5.7a61.27,61.27 0 0 0 -33.1,-9.67a65.59,65.59 0 0 0 -26.72,5.77a73.97,73.97 0 0 0 -10.54,6.04a61.84,61.84 0 0 0 -8.39,6.99a87,87 0 0 0 -5.7,6.5a61.59,61.59 0 0 0 -12.5,37.6l0,0.4a61.7,61.7 0 0 0 7.93,30.35a58.7,58.7 0 0 0 4.63,7.19a61.96,61.96 0 0 0 6.52,7.52c3.69,3.35 6.5,5.64 8.59,6.91a64.3,64.3 0 0 0 9.06,5.24a75.1,75.1 0 0 0 10.68,3.82c5.57,1.28 10.27,1.88 14.1,1.88l0.06,0c-3.09,2.96 -7.18,4.43 -12.28,4.43c-6.65,0 -13.83,-2.28 -21.55,-6.84a65.05,65.05 0 0 1 -9.2,-6.58a55.17,55.17 0 0 1 -6.65,-6.45a76.84,76.84 0 0 1 -3.62,-4.43a58.98,58.98 0 0 1 -5.84,-8.93a69.03,69.03 0 0 1 -8.46,-32.96zm12.22,-1.34c0,-6.85 1.2,-13.5 3.55,-20.01c4.57,-12.02 12.42,-21.42 23.57,-28.33c9.67,-5.7 19.74,-8.6 30.14,-8.6l0.6,0c10.68,0 20.75,3.03 30.22,9.07a53.25,53.25 0 0 1 6.98,5.37c2.89,2.35 4.36,5.03 4.36,7.99c0,2.48 -0.87,4.56 -2.68,6.38a8.73,8.73 0 0 1 -6.04,2.55l-0.74,0c-1.82,0 -3.36,-0.6 -4.77,-1.75l-3.76,-3.29c-7.32,-5.64 -15.44,-8.46 -24.3,-8.46c-3.02,0 -6.11,0.34 -9.27,1.08a39.63,39.63 0 0 0 -15.57,7.79c-0.67,0.4 -2.35,2.01 -4.97,4.76c-6.24,7.59 -9.4,16.11 -9.4,25.51c0,9.07 2.89,17.26 8.66,24.64c1,1.28 2.69,2.96 5.04,5.1c7.58,6.25 16.04,9.34 25.37,9.34c1.68,0 3.63,-0.14 5.71,-0.34l0.07,0l-0.07,0c0,0.87 -0.13,2.82 -0.4,5.84c-2.02,0.2 -3.9,0.34 -5.58,0.34c-7.18,0 -14.1,-1.75 -20.8,-5.17c-1.95,-1 -4.24,-2.49 -6.86,-4.43a48.58,48.58 0 0 1 -7.31,-7.19c-6.65,-8.52 -9.94,-17.85 -9.94,-28.06a45.1,45.1 0 0 1 5.37,-21.28a48.78,48.78 0 0 1 10.54,-13.1c8.8,-7.1 18.46,-10.67 29.14,-10.67c8.86,0 17.19,2.49 24.9,7.45a55.63,55.63 0 0 1 6.18,4.97c0.88,1.01 1.82,1.48 2.76,1.48c0.6,-0.07 1.07,-0.13 1.27,-0.27c1.2,-0.6 1.81,-1.54 1.81,-2.75c0,-0.74 -0.2,-1.34 -0.6,-1.95a49.51,49.51 0 0 0 -5.3,-4.7c-9.4,-6.91 -19.74,-10.34 -30.95,-10.34c-11.48,0 -21.96,3.56 -31.42,10.68c-2.62,1.94 -5.5,4.76 -8.66,8.46a57.26,57.26 0 0 0 -4.57,6.78c-4.43,7.99 -6.65,16.18 -6.65,24.44l0,1.54c0,7.65 1.95,15.3 5.91,23.03a54.81,54.81 0 0 0 4.97,7.65l2.69,3.16a58.13,58.13 0 0 0 6.37,5.84c9.47,7.11 19.8,10.67 31.15,10.67c1.62,0 3.16,-0.07 4.64,-0.27c-0.07,0.34 -0.07,0.47 -0.07,0.54c-0.4,1.81 -0.87,3.5 -1.48,4.97c-0.06,0.33 -0.27,0.53 -0.47,0.53l-2.28,0a57.68,57.68 0 0 1 -25.24,-5.84a65.65,65.65 0 0 1 -7.86,-4.7a59.06,59.06 0 0 1 -7.11,-5.97a62.83,62.83 0 0 1 -5.58,-6.51c-7.52,-10.34 -11.27,-21.69 -11.27,-33.97zm90.1,17.25c-2.76,0 -5.51,0.74 -8.13,2.28c-4.63,3.3 -6.98,7.59 -6.98,12.96l0,14.7c0,5.17 -1.28,10.34 -3.83,15.38a41.45,41.45 0 0 1 -3.3,4.96c-2.81,3.5 -5.5,5.58 -8.05,6.32l0,0.13c1.14,0 2.82,-0.47 5.04,-1.41c1.34,-0.6 2.75,-1.48 4.3,-2.55c0.8,-0.47 2.21,-1.81 4.22,-3.96c5.17,-5.78 7.8,-12.36 7.8,-19.67l0,-14.37a8.6,8.6 0 0 1 2.14,-5.5c1.95,-2.09 4.16,-3.1 6.51,-3.1l0.67,0c1.15,0 2.29,0.28 3.56,0.88a9.04,9.04 0 0 1 4.97,8.46l0,13.3c0,6.44 -1.41,12.14 -4.23,17.11a26.69,26.69 0 0 1 -3.62,5.3c-1.82,1.95 -3.16,3.23 -4.1,3.83c-1.68,1 -2.75,1.55 -3.22,1.55l0,0.13c1.14,0 2.68,-0.4 4.63,-1.28a22.4,22.4 0 0 0 4.97,-2.95c1.4,-1 3.09,-2.62 5.1,-4.97c4.43,-5.7 6.65,-11.55 6.65,-17.59l0,-15.04c0,-3.29 -1.08,-6.44 -3.3,-9.33c-3.28,-3.69 -7.18,-5.57 -11.8,-5.57zm0.13,11.95c-0.6,0 -1.08,0.07 -1.41,0.27c-1.21,0.6 -1.82,1.68 -1.82,3.29l0,14.57c0,4.97 -1.2,9.93 -3.69,14.9a39.85,39.85 0 0 1 -3.42,5.37c-2.96,3.56 -5.64,5.64 -8.06,6.25l0,0.13c1.54,0 3.63,-0.67 6.38,-2.08a31.88,31.88 0 0 0 5.9,-4.5c6.12,-6.18 9.14,-13.1 9.14,-20.74l0,-14.3c0,-0.2 -0.07,-0.54 -0.2,-1.01c-0.6,-1.41 -1.55,-2.15 -2.82,-2.15z" fill="#ca0000" id="svg_4" />
  </g>
</svg>