<svg width="500" height="180" xmlns="http://www.w3.org/2000/svg" xmlns:svg="http://www.w3.org/2000/svg">
  <g fill="#777" font-family="none" font-size="none" font-weight="none" stroke-miterlimit="10" text-anchor="none">
    <path d="m253.44,155.57l-1.39,-0.98a10.12,10.12 0 0 1 -2.64,2.75c-0.57,0.4 -1.2,0.73 -1.91,0.98c-0.7,0.25 -1.48,0.38 -2.32,0.38a9.88,9.88 0 0 1 -3.08,-0.49a7.26,7.26 0 0 1 -4.47,-3.94a8.2,8.2 0 0 1 -0.69,-3.49c0,-1.42 0.24,-2.64 0.73,-3.64a7.2,7.2 0 0 1 4.6,-3.87c1,-0.29 2,-0.43 3.03,-0.43a6.2,6.2 0 0 1 3.64,1.02c0.97,0.68 1.8,1.55 2.48,2.62l1.46,-0.87c-0.42,-0.65 -0.89,-1.25 -1.39,-1.79a8.2,8.2 0 0 0 -3.74,-2.3a11.56,11.56 0 0 0 -6.46,0.35a9.62,9.62 0 0 0 -3.2,1.94a8.79,8.79 0 0 0 -2.12,3.02a9.88,9.88 0 0 0 -0.75,3.93a9.34,9.34 0 0 0 2.99,7.1c0.76,0.7 1.73,1.3 2.92,1.76a10.95,10.95 0 0 0 6.83,0.28a9.45,9.45 0 0 0 4.05,-2.63c0.53,-0.57 1,-1.14 1.43,-1.7zm47.44,4.42l-8.16,-18.44l-1.1,0l-8.14,18.44l1.85,0l2.67,-6.03l8.31,0l2.7,6.03l1.87,0zm-5.3,-7.68l-6.82,0l1.82,-4.23c0.27,-0.61 0.54,-1.23 0.79,-1.84c0.25,-0.62 0.51,-1.24 0.79,-1.87l0.82,1.93l0.83,1.88l1.77,4.13zm54.24,2.39a4.1,4.1 0 0 0 -1.34,-3.08a6.11,6.11 0 0 0 -1.75,-1.14c-0.35,-0.16 -0.75,-0.3 -1.2,-0.43a84.57,84.57 0 0 0 -3.5,-0.85l-2.19,-0.48a28.73,28.73 0 0 1 -2.49,-0.67a5.65,5.65 0 0 1 -0.74,-0.3c-0.39,-0.2 -0.7,-0.46 -0.94,-0.8a1.95,1.95 0 0 1 -0.35,-1.15c0,-0.87 0.46,-1.57 1.39,-2.09c0.51,-0.27 1.2,-0.49 2.04,-0.64a15.3,15.3 0 0 1 5.04,-0.06c0.65,0.11 1.22,0.28 1.69,0.5a4.3,4.3 0 0 1 2.04,1.9l1.53,-0.8a6.97,6.97 0 0 0 -1.18,-1.52a5.56,5.56 0 0 0 -1.58,-1.05c-0.6,-0.28 -1.3,-0.49 -2.09,-0.62a17.45,17.45 0 0 0 -5.83,0.05a9,9 0 0 0 -2.49,0.8c-0.8,0.43 -1.37,0.95 -1.74,1.58a3.7,3.7 0 0 0 -0.37,3.08a3.6,3.6 0 0 0 1.09,1.7a5.03,5.03 0 0 0 1.47,0.85c0.25,0.1 0.57,0.22 0.97,0.33l1.5,0.39a135.7,135.7 0 0 0 4.57,1.04a28.9,28.9 0 0 1 2.5,0.73a3.9,3.9 0 0 1 1.74,1.2c0.33,0.38 0.49,0.9 0.49,1.57c0,0.5 -0.14,0.98 -0.41,1.42c-0.28,0.45 -0.66,0.83 -1.15,1.16a8.8,8.8 0 0 1 -2.2,1c-0.84,0.25 -1.83,0.38 -2.95,0.38c-1.78,0 -3.24,-0.25 -4.4,-0.75a6.99,6.99 0 0 1 -2.74,-2.04l-1.36,1.11a8.43,8.43 0 0 0 3.39,2.47c0.69,0.28 1.45,0.5 2.28,0.63c0.84,0.14 1.77,0.2 2.81,0.2c1.25,0 2.39,-0.14 3.41,-0.43c1.03,-0.3 1.93,-0.7 2.69,-1.21a5.72,5.72 0 0 0 1.72,-1.75c0.42,-0.68 0.63,-1.43 0.63,-2.24l0,0.01zm54.54,0.87l-1.38,-0.98c-0.33,0.47 -0.7,0.95 -1.14,1.43c-0.44,0.47 -0.94,0.92 -1.51,1.32a6.99,6.99 0 0 1 -4.23,1.36a9.88,9.88 0 0 1 -3.07,-0.49a7.26,7.26 0 0 1 -4.47,-3.94a8.2,8.2 0 0 1 -0.7,-3.49c0,-1.42 0.25,-2.64 0.74,-3.64a7.07,7.07 0 0 1 4.6,-3.87c1,-0.29 2,-0.43 3.02,-0.43a6.2,6.2 0 0 1 3.65,1.02c0.97,0.68 1.8,1.55 2.48,2.62l1.45,-0.87c-0.42,-0.65 -0.88,-1.25 -1.38,-1.79a8.2,8.2 0 0 0 -3.74,-2.3a11.56,11.56 0 0 0 -6.46,0.35a9.62,9.62 0 0 0 -3.21,1.94a8.79,8.79 0 0 0 -2.12,3.02a9.88,9.88 0 0 0 -0.75,3.93a9.34,9.34 0 0 0 2.99,7.1c0.76,0.7 1.74,1.3 2.93,1.76a10.95,10.95 0 0 0 6.82,0.28a9.45,9.45 0 0 0 4.06,-2.63c0.53,-0.57 1,-1.14 1.42,-1.7zm47.44,4.42l-8.16,-18.44l-1.1,0l-8.13,18.44l1.85,0l2.67,-6.03l8.3,0l2.7,6.03l1.87,0zm-5.3,-7.68l-6.82,0l1.82,-4.23c0.28,-0.61 0.54,-1.23 0.8,-1.84c0.24,-0.62 0.5,-1.24 0.78,-1.87l0.83,1.93l0.82,1.88l1.77,4.13zm-217.86,-29.81l0,-1.2l227.36,0l0,1.2l-227.36,0z" id="svg_2" />
    <path d="m286.61,33.07c6.33,-1.78 2.03,0.88 -1.64,-11.4c-1.02,0.13 -2.03,0.5 -3.04,0.76a30.9,30.9 0 0 0 -10.76,5.95c-2.16,1.9 -4.56,4.43 -6.08,7.47c-1.27,-0.38 -6.2,-1.9 -12.79,0.13c-13.8,4.18 -21.14,22.28 -14.56,34.43c0.13,0.5 0.26,0.5 -0.88,1.65c-5.83,5.7 -9.62,14.43 -7.72,21.4c0.63,2.15 1.9,4.04 3.67,5.44c1.14,0.88 2.53,1.52 4.17,2.02c-7.84,6.71 -10.38,18.36 -3.03,26.72a21.64,21.64 0 0 0 8.6,5.95c4.3,1.39 8.74,1.51 13.17,0.88c12.66,-1.64 24.94,-9.62 28.49,-22.15c0.88,-3.42 0.88,-6.97 -0.13,-10.38c-1.14,-3.93 -3.8,-6.84 -7.22,-9a19.93,19.93 0 0 0 -7.97,-3.16a35.53,35.53 0 0 0 -9,-0.88c-1.51,0.12 -3.16,0.12 -4.8,0.25c-2.4,0.13 -4.94,0.38 -7.34,0.5c-3.42,0.26 -4.44,0.51 -7.6,0.13c0.25,-4.05 2.28,-7.09 5.06,-9.75c0.76,0.38 1.4,0.89 2.16,1.27c6.2,3.54 12.66,4.05 19.24,1.4c6.96,-3.05 11.52,-8.36 13.67,-15.58a25.45,25.45 0 0 0 0.38,-14.43a25.92,25.92 0 0 0 -4.81,-9.5c-1.01,-1.26 -1.01,-1.26 -0.25,-2.65c0.63,-1.27 3.16,-3.68 4.55,-4.56a21.14,21.14 0 0 1 6.46,-2.91zm-45.07,81.02c4.3,-9.5 25.83,-16.84 31.02,-9.75c2.78,3.8 -1.52,11.4 -7.47,14.69a33.4,33.4 0 0 1 -8.48,3.54c-3.04,0.76 -6.2,1.14 -9.5,0.38c-3.54,-0.89 -7.47,-4.68 -5.57,-8.86zm8.86,-63.68c9.37,-11.01 24.31,2.66 18.23,15.32a12.6,12.6 0 0 1 -5.95,6.08c-4.17,2.02 -8.73,0.88 -11.77,-2.03a13.43,13.43 0 0 1 -3.67,-7.6a14.6,14.6 0 0 1 3.16,-11.77zm91.79,50.39c0.38,-0.76 0.12,-1.52 -0.26,-2.66c-0.63,-1.77 -1.39,-3.42 -1.9,-5.2a43.57,43.57 0 0 1 -1.51,-8.1c-1.14,-11.9 -0.89,-23.92 1,-34.94c0.52,-2.78 1.53,-12.78 1.53,-14.8c0,-1.65 -12.03,-1.4 -12.03,0.88c0,1.26 -0.25,6.7 -0.5,7.72c-0.38,2.15 -0.38,4.3 -0.76,6.33c-0.51,2.53 -1.02,5.2 -1.65,7.72a84.63,84.63 0 0 1 -7.98,20c-1.9,3.42 -4.17,6.71 -7.21,9.37c-1.14,1.02 -2.28,1.9 -3.8,2.16c-9.87,1.9 -6.84,-36.6 0,-51.91c0.5,-1.14 0.38,-2.15 -0.5,-2.91a11.44,11.44 0 0 0 -7.86,-3.17c-1.13,0 -1.77,0.64 -2.27,1.65c-2.79,5.44 -4.06,12.15 -5.32,17.98c-0.63,2.9 -1.01,5.95 -1.4,8.98c-1,9.63 -1.13,19.25 1.9,28.49a20.43,20.43 0 0 0 5.96,9.11c2.4,2.16 5.31,3.3 8.6,3.42c3.3,0.13 6.08,-1.01 8.87,-2.66c3.8,-2.27 6.7,-5.57 9.36,-9.11c0.89,-1.14 1.65,-2.4 2.54,-3.55c0.5,6.2 2.4,13.42 5.19,18.87c0.63,1.26 1.39,1.52 2.66,1.14c2.02,-0.64 6.2,-2.66 7.34,-4.81zm58.49,-49c-0.89,-3.54 -2.28,-6.96 -4.81,-9.75c-4.3,-4.68 -9.5,-6.96 -15.83,-6.45a24.08,24.08 0 0 0 -8.48,2.28a32.61,32.61 0 0 0 -10.26,7.85c0,-3.3 -1.9,-9.12 -4.55,-12.92c-1.9,-2.28 -8.87,4.81 -9.12,5.57c-0.38,1.4 0.13,1.27 1.14,4.18c4.18,14.18 3.67,36.84 0.76,56.46c-0.25,1.78 0.13,2.66 1.9,3.42c2.03,0.89 4.3,1.52 6.7,1.14c1.78,-0.25 2.41,-0.88 2.8,-2.66c3.67,-16.58 -0.13,-39.88 11.14,-49.75a17.68,17.68 0 0 1 6.33,-3.67c1.77,-0.38 3.67,-0.63 5.44,-0.13a8.07,8.07 0 0 1 4.68,4.18c1.52,3.04 1.65,6.2 1.27,9.5c-0.13,1.13 -0.25,2.4 -0.5,3.29c-0.64,2.53 3.92,4.68 6.96,4.68c0.76,0 1.64,0.13 2.4,-0.25c1.01,-0.26 1.65,-0.76 1.9,-1.78c0.5,-2.02 0.76,-3.92 0.89,-5.95c0.25,-3.16 0,-6.07 -0.76,-9.24zm55.07,15.45c-0.26,-2.79 -0.64,-5.45 -1.02,-8.23a87.95,87.95 0 0 0 -2.9,-12.4c-6.84,-22.42 -31.4,-30.27 -42.67,-9.25c-3.67,6.84 -5.32,18.1 -1.9,19.37a11,11 0 0 0 4.94,0.5c1.64,-0.12 3.54,-0.75 3.92,-2.27c0.5,-1.9 0.25,-3.67 0.38,-5.45c0.89,-12.15 13.93,-18.86 20.26,-8.35c3.04,5.06 4.68,10.5 5.95,16.2c0.5,2.28 0.88,4.43 1.14,6.71c0.25,1.65 0.38,3.17 0.5,4.69c-2.15,-0.26 -3.92,-0.76 -5.82,-0.89c-10,-0.89 -22.16,3.93 -29,11.27c-4.04,4.43 -6.45,9.87 -5.18,15.32c1.01,4.3 3.54,7.34 7.34,9.5a25.1,25.1 0 0 0 10.89,2.65c1.14,0 2.15,-0.13 3.29,-0.25c1.52,-0.13 3.04,-0.38 4.56,-0.64a38.9,38.9 0 0 0 9.11,-3.16a4.77,4.77 0 0 0 2.03,2.91a11.75,11.75 0 0 0 4.43,2.03a7.1,7.1 0 0 0 2.28,0.25c1.14,0 2.02,-0.5 2.4,-1.77c0.64,-2.03 1.4,-4.05 2.03,-6.2a72.33,72.33 0 0 0 2.53,-12.67c0.25,-2.15 0.63,-4.3 0.63,-6.45c0.13,-4.56 0.26,-9 -0.12,-13.42zm-15.57,12.53c4.43,1.27 4.55,3.93 1.26,7.47a25.36,25.36 0 0 1 -8.99,5.95a24.36,24.36 0 0 1 -7.97,1.77c-3.93,0.26 -9.37,-0.88 -8.86,-3.42c0.25,-3.16 4.05,-6.83 7.46,-8.6a28.5,28.5 0 0 1 9.5,-3.42c2.53,-0.38 5.06,-0.5 7.6,0.25z" id="svg_3" />
    <path d="m110.79,17.05a74.22,74.22 0 0 0 -25.45,4.63a72.26,72.26 0 0 0 -10.8,4.97a81.16,81.16 0 0 0 -8.87,5.84a88.75,88.75 0 0 0 -7.45,6.45a73.69,73.69 0 0 0 -6.24,7.05a86.9,86.9 0 0 0 -6.25,9.33c-6.5,11.68 -9.73,23.83 -9.73,36.38l0,1.08c0,8.12 1.48,16.31 4.36,24.57a70,70 0 0 0 5.44,11.88c1.14,2.29 3.09,5.24 5.84,8.93c1.28,1.82 3.7,4.57 7.32,8.26a92.56,92.56 0 0 0 7.39,6.31a84.42,84.42 0 0 0 8.79,5.64c8.2,4.3 15.78,6.45 22.7,6.45c2.74,0 5.36,-0.4 7.98,-1.15c4.77,-1.67 8.8,-4.9 12.09,-9.73a29.54,29.54 0 0 0 2.48,-4.57c2.08,-4.56 3.15,-11.14 3.15,-19.67l0,-6.37c0,-5.1 1.68,-9.67 5.04,-13.7c4.5,-4.83 9.8,-7.25 15.91,-7.25c4.5,0 8.6,1.34 12.42,4.03c0.8,0.47 2.02,1.6 3.7,3.42c3.22,4.1 4.83,8.46 4.83,13.1l0,14.63c0,7.65 -2.55,14.63 -7.59,20.94c-0.6,0.81 -1.95,2.22 -4.1,4.23c-1,0.88 -2,1.55 -2.95,2.15c0.54,-0.06 1.21,-0.27 2.02,-0.47a23.6,23.6 0 0 0 4.7,-2.01a32.88,32.88 0 0 0 5.57,-4.23a25.68,25.68 0 0 0 3.82,-4.77a29.84,29.84 0 0 0 4.03,-9.67c0.47,-2.21 0.74,-5.5 0.74,-9.86l0,-10.48c0,-7.85 -2.95,-14.5 -8.8,-20.07c-5.36,-4.77 -11.47,-7.18 -18.39,-7.18c-3.15,0 -6.24,0.53 -9.26,1.67a27.1,27.1 0 0 0 -14.97,13.36a21.02,21.02 0 0 1 -8.6,1.95l-0.74,0c-5.17,0 -9.87,-1.95 -14.16,-5.84c-4.3,-4.36 -6.45,-9.26 -6.45,-14.84l0,-0.47c0,-4.3 1.35,-8.32 4.1,-12.15c0.47,-0.8 1.68,-2.01 3.49,-3.69c4.1,-3.22 8.53,-4.83 13.36,-4.83c4.9,0 9.26,1.54 13.22,4.7a60.36,60.36 0 0 0 4.44,3.82c4.83,3.3 9.86,4.97 15.1,4.97l0.94,0c3.56,0 7.18,-0.8 10.88,-2.42a34.31,34.31 0 0 0 5.77,-3.42c1.28,-1 2.75,-2.48 4.43,-4.3a26.6,26.6 0 0 0 5.84,-16.58l0,-0.74c0,-4.16 -1,-8.19 -3.02,-12.08c-0.74,-1.61 -2.15,-3.63 -4.16,-6.05a85.36,85.36 0 0 0 -7.52,-6.57a103.28,103.28 0 0 0 -9,-5.98c-11.61,-6.38 -23.76,-9.6 -36.32,-9.6l-1.07,0zm-68.61,75.26c0,-13.1 3.55,-25.31 10.6,-36.66a58.82,58.82 0 0 1 6.18,-8.32c1.14,-1.55 3.36,-3.83 6.65,-6.85a76.41,76.41 0 0 1 7.85,-5.97c11.68,-7.46 24.24,-11.22 37.73,-11.22a68.94,68.94 0 0 1 31.42,7.46a59.2,59.2 0 0 1 8.06,4.76c2.08,1.28 5.03,3.76 8.93,7.39a20.6,20.6 0 0 1 6.1,14.77c0,5.23 -1.8,9.93 -5.5,14.16c-4.36,4.5 -9.53,6.78 -15.5,6.78l-0.07,0c-3.16,0 -6.25,-0.73 -9.27,-2.14a22.02,22.02 0 0 1 -5.17,-3.7c-5.5,-5.1 -11.75,-7.65 -18.8,-7.65a27.17,27.17 0 0 0 -16.1,5.24a31.19,31.19 0 0 0 -4.3,3.89c-4.57,5.37 -6.85,11.35 -6.85,17.92a26.9,26.9 0 0 0 5.84,16.86c0.74,1 2.08,2.35 3.96,4.02c5.23,4.23 11,6.31 17.32,6.31c2.08,0 4.23,-0.26 6.51,-0.73c-0.27,1.67 -0.4,3.29 -0.4,4.76c-2.08,0.4 -4.1,0.6 -5.91,0.6c-4.43,0 -8.8,-0.93 -13.02,-2.75a33.23,33.23 0 0 1 -9.8,-6.5a34.86,34.86 0 0 1 -4.03,-4.57c-4.1,-5.98 -6.11,-12.15 -6.11,-18.67l0,-0.94a32.22,32.22 0 0 1 7.18,-20a33.3,33.3 0 0 1 4.43,-4.64c6.38,-5.23 13.5,-7.85 21.35,-7.85a31.6,31.6 0 0 1 16.65,4.57c1.81,1 4.23,2.81 7.12,5.37c2.55,2.41 5.77,3.62 9.66,3.62c3.03,0 5.91,-0.94 8.66,-2.75l1.88,-1.55c3.03,-3.22 4.57,-6.7 4.57,-10.4l0,-0.34s0,-0.06 0.07,-0.13c-0.07,-0.07 -0.07,-0.14 -0.07,-0.2l0,-0.27c0,-4.63 -2.42,-8.93 -7.25,-12.76a54.55,54.55 0 0 0 -7.59,-5.7a61.27,61.27 0 0 0 -33.1,-9.67a65.59,65.59 0 0 0 -26.72,5.77a73.97,73.97 0 0 0 -10.54,6.04a61.84,61.84 0 0 0 -8.39,6.99a87,87 0 0 0 -5.7,6.5a61.59,61.59 0 0 0 -12.5,37.6l0,0.4a61.7,61.7 0 0 0 7.93,30.35a58.7,58.7 0 0 0 4.63,7.19a61.96,61.96 0 0 0 6.52,7.52c3.69,3.35 6.5,5.64 8.59,6.91a64.3,64.3 0 0 0 9.06,5.24a75.1,75.1 0 0 0 10.68,3.82c5.57,1.28 10.27,1.88 14.1,1.88l0.06,0c-3.09,2.96 -7.18,4.43 -12.28,4.43c-6.65,0 -13.83,-2.28 -21.55,-6.84a65.05,65.05 0 0 1 -9.2,-6.58a55.17,55.17 0 0 1 -6.65,-6.45a76.84,76.84 0 0 1 -3.62,-4.43a58.98,58.98 0 0 1 -5.84,-8.93a69.03,69.03 0 0 1 -8.46,-32.96zm12.22,-1.34c0,-6.85 1.2,-13.5 3.55,-20.01c4.57,-12.02 12.42,-21.42 23.57,-28.33c9.67,-5.7 19.74,-8.6 30.14,-8.6l0.6,0c10.68,0 20.75,3.03 30.22,9.07a53.25,53.25 0 0 1 6.98,5.37c2.89,2.35 4.36,5.03 4.36,7.99c0,2.48 -0.87,4.56 -2.68,6.38a8.73,8.73 0 0 1 -6.04,2.55l-0.74,0c-1.82,0 -3.36,-0.6 -4.77,-1.75l-3.76,-3.29c-7.32,-5.64 -15.44,-8.46 -24.3,-8.46c-3.02,0 -6.11,0.34 -9.27,1.08a39.63,39.63 0 0 0 -15.57,7.79c-0.67,0.4 -2.35,2.01 -4.97,4.76c-6.24,7.59 -9.4,16.11 -9.4,25.51c0,9.07 2.89,17.26 8.66,24.64c1,1.28 2.69,2.96 5.04,5.1c7.58,6.25 16.04,9.34 25.37,9.34c1.68,0 3.63,-0.14 5.71,-0.34l0.07,0l-0.07,0c0,0.87 -0.13,2.82 -0.4,5.84c-2.02,0.2 -3.9,0.34 -5.58,0.34c-7.18,0 -14.1,-1.75 -20.8,-5.17c-1.95,-1 -4.24,-2.49 -6.86,-4.43a48.58,48.58 0 0 1 -7.31,-7.19c-6.65,-8.52 -9.94,-17.85 -9.94,-28.06a45.1,45.1 0 0 1 5.37,-21.28a48.78,48.78 0 0 1 10.54,-13.1c8.8,-7.1 18.46,-10.67 29.14,-10.67c8.86,0 17.19,2.49 24.9,7.45a55.63,55.63 0 0 1 6.18,4.97c0.88,1.01 1.82,1.48 2.76,1.48c0.6,-0.07 1.07,-0.13 1.27,-0.27c1.2,-0.6 1.81,-1.54 1.81,-2.75c0,-0.74 -0.2,-1.34 -0.6,-1.95a49.51,49.51 0 0 0 -5.3,-4.7c-9.4,-6.91 -19.74,-10.34 -30.95,-10.34c-11.48,0 -21.96,3.56 -31.42,10.68c-2.62,1.94 -5.5,4.76 -8.66,8.46a57.26,57.26 0 0 0 -4.57,6.78c-4.43,7.99 -6.65,16.18 -6.65,24.44l0,1.54c0,7.65 1.95,15.3 5.91,23.03a54.81,54.81 0 0 0 4.97,7.65l2.69,3.16a58.13,58.13 0 0 0 6.37,5.84c9.47,7.11 19.8,10.67 31.15,10.67c1.62,0 3.16,-0.07 4.64,-0.27c-0.07,0.34 -0.07,0.47 -0.07,0.54c-0.4,1.81 -0.87,3.5 -1.48,4.97c-0.06,0.33 -0.27,0.53 -0.47,0.53l-2.28,0a57.68,57.68 0 0 1 -25.24,-5.84a65.65,65.65 0 0 1 -7.86,-4.7a59.06,59.06 0 0 1 -7.11,-5.97a62.83,62.83 0 0 1 -5.58,-6.51c-7.52,-10.34 -11.27,-21.69 -11.27,-33.97zm90.1,17.25c-2.76,0 -5.51,0.74 -8.13,2.28c-4.63,3.3 -6.98,7.59 -6.98,12.96l0,14.7c0,5.17 -1.28,10.34 -3.83,15.38a41.45,41.45 0 0 1 -3.3,4.96c-2.81,3.5 -5.5,5.58 -8.05,6.32l0,0.13c1.14,0 2.82,-0.47 5.04,-1.41c1.34,-0.6 2.75,-1.48 4.3,-2.55c0.8,-0.47 2.21,-1.81 4.22,-3.96c5.17,-5.78 7.8,-12.36 7.8,-19.67l0,-14.37a8.6,8.6 0 0 1 2.14,-5.5c1.95,-2.09 4.16,-3.1 6.51,-3.1l0.67,0c1.15,0 2.29,0.28 3.56,0.88a9.04,9.04 0 0 1 4.97,8.46l0,13.3c0,6.44 -1.41,12.14 -4.23,17.11a26.69,26.69 0 0 1 -3.62,5.3c-1.82,1.95 -3.16,3.23 -4.1,3.83c-1.68,1 -2.75,1.55 -3.22,1.55l0,0.13c1.14,0 2.68,-0.4 4.63,-1.28a22.4,22.4 0 0 0 4.97,-2.95c1.4,-1 3.09,-2.62 5.1,-4.97c4.43,-5.7 6.65,-11.55 6.65,-17.59l0,-15.04c0,-3.29 -1.08,-6.44 -3.3,-9.33c-3.28,-3.69 -7.18,-5.57 -11.8,-5.57zm0.13,11.95c-0.6,0 -1.08,0.07 -1.41,0.27c-1.21,0.6 -1.82,1.68 -1.82,3.29l0,14.57c0,4.97 -1.2,9.93 -3.69,14.9a39.85,39.85 0 0 1 -3.42,5.37c-2.96,3.56 -5.64,5.64 -8.06,6.25l0,0.13c1.54,0 3.63,-0.67 6.38,-2.08a31.88,31.88 0 0 0 5.9,-4.5c6.12,-6.18 9.14,-13.1 9.14,-20.74l0,-14.3c0,-0.2 -0.07,-0.54 -0.2,-1.01c-0.6,-1.41 -1.55,-2.15 -2.82,-2.15z" fill="#ef2e55" />
    <path d="m194.59,164.95l0,-147.9l3.13,0l0,147.9l-3.13,0z" />
  </g>
</svg>
